<?xml version="1.0" encoding="UTF-8"?>
<svg id="Layer_1" xmlns="http://www.w3.org/2000/svg" version="1.1" viewBox="0 0 140 140">
  <!-- Generator: Adobe Illustrator 30.3.0, SVG Export Plug-In . SVG Version: 2.1.3 Build 182)  -->
  <defs>
    <style>
      .st0 {
        fill: #fff;
      }

      .st1 {
        fill: #a49000;
      }

      .st2 {
        fill: #dabc00;
      }
    </style>
  </defs>
  <rect y="0" width="140" height="140" rx="32.6" ry="32.6"/>
  <g>
    <path class="st2" d="M85.4,73.4l-1,32.1c0,1.5,1.3,2.7,2.9,2.7s2.9-1.2,2.9-2.7l-.9-28.8c-2.1,0-3.8-1.4-4.1-3.3Z"/>
    <path class="st2" d="M88.9,67.7c-1,1.6-2.2,3.1-3.5,4.5v1.2c.3,1.8,2,3.3,4,3.3,0,0,0,0,0,0,2.3,0,4.2-1.7,4.2-3.8v-21.1c0,5.8-1.7,11.3-4.7,16Z"/>
    <path class="st1" d="M85.3,31.8v37.7c.1,0,0,0,0,0,1.3-1.4,2.5-2.9,3.5-4.5,3-4.7,4.7-10.1,4.7-16s.2-9.6-1.3-12.4c-1.4-2.8-4.2-4-7.1-4.8Z"/>
    <path class="st0" d="M40.1,42.7c.4,0,5.2,0,5.2,3v27.7c-1-.5-2.1-.7-3.2-.7-2.1,0-4.1.7-5.8.7-5.7,0-8.9-2.5-8.9-6.9v-7.6c0-4.3,3.7-6.9,7.9-6.9s5.1,1.5,5.1,1.5c0,0-.3-1.3-.3-2.3v-8.6ZM40.1,59.1c0-1.9-2.1-3.3-4.3-3.3s-3.3,1.1-3.3,3.7v6.4c0,2.5,1,3.7,4.2,3.7s3.3-.5,3.3-.5v-10.1Z"/>
    <path class="st0" d="M65.1,66.4c0,4.4-3.1,7-9.6,7s-9.6-2.6-9.6-7v-7.4c0-4.4,3.1-7,9.6-7s9.6,2.6,9.6,7v7.4ZM59.9,59.6c0-2.4-.8-3.8-4.4-3.8s-4.4,1.4-4.4,3.8v6.2c0,2.4.8,3.8,4.4,3.8s4.4-1.4,4.4-3.8v-6.2Z"/>
    <path class="st0" d="M83.7,66.5c0,4.4-3.3,6.9-9.3,6.9s-5.5-1.3-8.6-1.4v-29.3c.4,0,5.2,0,5.2,3v5.6c0,1-.3,2.3-.3,2.3,0,0,1.8-1.5,5.1-1.5s7.9,2.6,7.9,6.9v7.6ZM71,69c.5.2,1.5.6,3.3.6,3.3,0,4.2-1.2,4.2-3.7v-6.4c0-2.6-1.4-3.7-3.3-3.7s-4.3,1.3-4.3,3.3v9.9Z"/>
    <path class="st0" d="M95.2,66.4v-7.4c0-4.4,3.1-7,8.8-7s8.4,2.6,8.4,6.6-2,6.5-8.3,6.5-2.5-.2-3.7-.7v1.4c0,2.4,1.4,3.6,4.4,3.6s6.6-1.7,6.6-4c.8,1.2,1.2,2.3,1.2,3.3,0,2.9-3.3,4.8-7.9,4.8s-9.6-2.6-9.6-7ZM100.4,60.8c.4,0,1.8.4,3,.4,2.9,0,3.8-.9,3.8-2.5s-.9-2.8-3.4-2.8-3.5,1.4-3.5,3.8v1.2Z"/>
    <path class="st0" d="M110.9,101.2c0,4.4-3.1,7-9.6,7s-9.6-2.6-9.6-7v-7.4c0-4.4,3.1-7,9.6-7s9.6,2.6,9.6,7v7.4ZM105.8,94.4c0-2.4-.8-3.8-4.4-3.8s-4.4,1.4-4.4,3.8v6.2c0,2.4.8,3.8,4.4,3.8s4.4-1.4,4.4-3.8v-6.2Z"/>
    <g>
      <path class="st0" d="M78.1,86.8c.3,0,5.2,0,5.2,2.6v18.8s-5.2,0-5.2-2.6v-18.8Z"/>
      <path class="st0" d="M80.1,75.8c-.5-.4-2.4-1.4-4.9-1.6,0,0-.2,0-.3,0-.4,0-.7,0-1.1,0h0c-.4,0-.8,0-1.1,0,0,0-.2,0-.3,0-.3,0-.6,0-.9.2,0,0,0,0,0,0-.3,0-.5.1-.8.2-.2,0-.3.1-.5.2,0,0-.1,0-.2,0-.6.2-1.2.5-1.7.9-1.9,1.3-3.1,3.3-3.1,5.8v5.7h0v18.2c0,2.8,5.6,2.8,5.6,2.8v-16.7h1.7c3.2,0,3.2-4.3,3.2-4.3h-4.9v-5c0-2.5,1.2-3.8,3-4,.2,0,.4,0,.6,0,4,0,3.8,4.8,3.8,4.8,0,1.4.8,2.5,5.2,3.8v-5.3c0-2.6-1.3-4.5-3.2-5.8Z"/>
    </g>
  </g>
</svg>